{"title":"Dr Seuss The Lorax 2012 CAM XViD DTRG","uid":7139928,"size":779743274,"categoryP":"video","categoryS":"movies","magnet":"?xt=urn:btih:ef67f385f085f2d967fb0638f1590b3841fae8ed&amp;dn=Dr+Seuss+The+Lorax+2012+CAM+XViD+DTRG&amp;tr=udp%3A%2F%2Ftracker.openbittorrent.com%3A80&amp;tr=udp%3A%2F%2Fopen.demonii.com%3A1337&amp;tr=udp%3A%2F%2Ftracker.coppersurfer.tk%3A6969&amp;tr=udp%3A%2F%2Fexodus.desync.com%3A6969","seeders":2,"leechers":0,"uploader":"BLOVES","files":3,"time":1332967606,"description":"Format : AVI\nFormat/Info : Audio Video Interleave\nFile size : 739 MiB\nDuration : 1h 18mn\nOverall bit rate : 1 312 Kbps\nWriting application : VirtualDubMod 1.5.10.2 (build 2540/release)\nWriting library : VirtualDub build 32842/release\n\nVideo\nID : 0\nFormat : MPEG-4 Visual\nFormat profile : Advanced Simple@L5\nFormat settings, BVOP : 2\nFormat settings, QPel : No\nFormat settings, GMC : No warppoints\nFormat settings, Matrix : Default (H.263)\nMuxing mode : Packed bitstream\nCodec ID : XVID\nCodec ID/Hint : XviD\nDuration : 1h 18mn\nBit rate : 1 175 Kbps\nWidth : 672 pixels\nHeight : 282 pixels\nDisplay aspect ratio : 2.40:1\nFrame rate : 25.000 fps\nColor space : YUV\nChroma subsampling : 4:2:0\nBit depth : 8 bits\nScan type : Progressive\nCompression mode : Lossy\nBits/(Pixel*Frame) : 0.248\nStream size : 661 MiB (90%)\nWriting library : XviD 64\n\nAudio\nID : 1\nFormat : MPEG Audio\nFormat version : Version 1\nFormat profile : Layer 3\nMode : Joint stereo\nMode extension : MS Stereo\nCodec ID : 55\nCodec ID/Hint : MP3\nDuration : 1h 18mn\nBit rate mode : Constant\nBit rate : 128 Kbps\nChannel(s) : 2 channels\nSampling rate : 44.1 KHz\nCompression mode : Lossy\nStream size : 72.1 MiB (10%)\nAlignment : Split accross interleaves\nInterleave, duration : 40 ms (1.00 video frame)\nInterleave, preload duration : 500 ms\n\n\n\n\n\n\n\n\n\n\n &lt;a href=&quot;\nhttp://www.imdb.com/title/tt1482459/&quot; rel=&quot;nofollow&quot; target=&quot;_NEW&quot;&gt;\nhttp://www.imdb.com/title/tt1482459/&lt;/a&gt;\n\n\n\n\nRatings: 6.5/10 from 2,947 users Metascore: 47/100 \nReviews: 48 user | 83 critic | 28 from Metacritic.com\n\nA 12-year-old boy searches for the one thing that will enable him to win the affection of the girl of his dreams. To find it he must discover the story of the Lorax, the grumpy yet charming creature who fights to protect his world.\n\nDirectors:\nChris Renaud, Kyle Balda\nWriters:\nKen Daurio (screenplay), Dr. Seuss (book), and 1 more credit Â»\nStars:\nZac Efron, Taylor Swift and Danny DeVito \n\n\n\n\n\n\nSource Used\n\n\n\nVideo ..............Lum1x..........Thanks\n\nAudio................INSPiRAL V2 ................Thanks\n\n\n\n\n\nPlenty filters but wont bore you to death just my take on it but check out the sample its needed \n\n\n\n\n\nEnjoy","torrent":{"xt":"urn:btih:ef67f385f085f2d967fb0638f1590b3841fae8ed","amp;dn":"Dr+Seuss+The+Lorax+2012+CAM+XViD+DTRG","amp;tr":["udp%3A%2F%2Ftracker.openbittorrent.com%3A80","udp%3A%2F%2Fopen.demonii.com%3A1337","udp%3A%2F%2Ftracker.coppersurfer.tk%3A6969","udp%3A%2F%2Fexodus.desync.com%3A6969"],"infoHash":"ef67f385f085f2d967fb0638f1590b3841fae8ed","infoHashBuffer":{"type":"Buffer","data":[239,103,243,133,240,133,242,217,103,251,6,56,241,89,11,56,65,250,232,237]},"announce":[],"urlList":[]}}